<svg width="972" height="372" viewBox="0 0 972 372" fill="none" xmlns="http://www.w3.org/2000/svg">
<path d="M251.438 120.881H185.189L157.053 182.525V214.243H112.546L212.559 0.91687H109.732L0 236.752V301.466H157.053V359.018H251.438V301.466H292.108V214.243H251.438V120.881Z" fill="#0050DC"/>
<path d="M485.302 0C395.521 0 324.668 69.5739 324.668 185.701C324.668 301.828 395.521 371.402 485.302 371.402C575.339 371.402 645.936 301.828 645.936 185.701C645.936 69.5739 575.339 0 485.302 0ZM485.302 90.5484C520.856 90.5484 547.714 123.289 547.714 185.701C547.714 248.113 520.856 280.854 485.302 280.854C449.748 280.854 422.89 248.113 422.89 185.701C422.89 123.289 449.748 90.5484 485.302 90.5484Z" fill="#00D37F"/>
<path d="M930.62 120.881H864.371L836.235 182.525V214.243H791.728L891.74 0.91687H788.914L679.182 236.752V301.466H836.235V359.018H930.62V301.466H971.29V214.243H930.62V120.881Z" fill="#D5F900"/>
</svg>
