<svg width="603" height="330" viewBox="0 0 603 330" fill="none" xmlns="http://www.w3.org/2000/svg">
<path d="M273.356 86.7728V74.0494L260.235 62.1212H228.029L212.522 76.435L194.232 92.3393L186.28 97.1106L182.304 100.291V105.46V110.629L171.171 116.991L162.424 124.545L156.857 132.498H106.361L89.6617 138.064L73.3599 149.595L63.8173 163.511L58.6484 182.994V229.513L87.2761 227.128L118.687 191.741L156.857 182.994L209.341 203.271L240.355 235.08L268.982 229.513L276.934 227.128H289.658L302.381 233.49L307.948 241.044H314.309L336.178 242.237L354.468 239.851L363.215 237.466L390.252 222.754L396.216 199.693L393.433 177.825L364.805 82.3991L362.022 80.4111L336.178 86.7728L314.309 88.3632L311.924 92.3393L310.731 97.1106L322.261 155.161L304.767 151.98L302.381 153.571L293.634 161.523L289.658 138.859L280.91 120.967L273.356 112.617V107.448V86.7728Z" fill="white" stroke="white"/>
<path d="M349.649 65.533L359.276 81.1207L364.319 90.29L322.599 96.25L319.39 78.8284L317.098 66.9084C317.709 66.4499 318.015 65.8081 314.347 66.9084C310.679 68.0087 304.567 69.2007 301.969 69.6592L305.178 71.493L307.012 72.4099V75.1607L304.261 76.5361L296.009 75.1607L292.799 72.4099L287.298 71.493L273.544 69.6592L258.873 60.9484L263.458 51.7791L291.882 38.9422L317.098 37.5668L330.393 40.776L340.938 46.2776L347.356 54.0714L349.649 65.533Z" fill="white"/>
<path fill-rule="evenodd" clip-rule="evenodd" d="M157.355 130.945C158.012 130.945 158.544 131.478 158.544 132.135C158.544 132.768 158.049 133.286 157.424 133.322L157.355 133.324H114.176C84.6801 133.324 60.6969 157.013 60.2202 186.395L60.213 187.288V328.123C60.213 328.78 59.6804 329.313 59.0235 329.313C58.39 329.313 57.8722 328.817 57.836 328.193L57.834 328.123V187.288C57.834 156.491 82.5661 131.451 113.245 130.953L114.176 130.945H157.355Z" fill="#1A1A33"/>
<path fill-rule="evenodd" clip-rule="evenodd" d="M219.056 203.784C219.887 203.507 220.786 203.955 221.063 204.786L221.302 205.512L221.68 206.683C221.76 206.934 221.842 207.194 221.927 207.464C222.573 209.513 223.218 211.657 223.821 213.792C224.094 214.757 224.352 215.7 224.593 216.615L224.736 217.16C225.683 220.814 226.31 223.841 226.53 226.067C226.616 226.939 225.979 227.716 225.107 227.802C224.236 227.888 223.459 227.251 223.373 226.379C223.179 224.41 222.607 221.623 221.74 218.247L221.665 217.956C221.39 216.895 221.09 215.791 220.769 214.655C220.249 212.815 219.697 210.966 219.14 209.179L218.901 208.417C218.762 207.974 218.629 207.557 218.504 207.167L218.055 205.791C217.777 204.961 218.226 204.062 219.056 203.784Z" fill="#1A1A33"/>
<path fill-rule="evenodd" clip-rule="evenodd" d="M277.583 198.59C278.431 198.64 279.084 199.348 279.075 200.188L279.037 200.964C279.013 201.476 278.988 202.062 278.966 202.714L278.957 202.962C278.709 210.278 278.809 218.539 279.506 226.643C279.581 227.515 278.934 228.284 278.061 228.359C277.189 228.434 276.421 227.787 276.345 226.914C275.658 218.918 275.542 210.794 275.765 203.533L275.804 202.356C275.819 201.951 275.835 201.572 275.85 201.221L275.906 200.08C275.956 199.232 276.664 198.579 277.504 198.588L277.583 198.59Z" fill="#1A1A33"/>
<path fill-rule="evenodd" clip-rule="evenodd" d="M320.985 154.558C321.455 154.099 322.208 154.108 322.667 154.578C322.933 154.85 323.109 155.197 323.277 155.675L323.337 155.85C323.455 156.215 323.574 156.663 323.712 157.255L323.882 158.009C324.037 158.719 324.35 160.186 324.423 160.517C325.02 163.246 325.565 165.339 326.274 167.405C328.879 174.997 332.801 179.178 338.886 179.08C339.543 179.07 340.084 179.594 340.095 180.25C340.105 180.907 339.581 181.448 338.925 181.459C331.564 181.577 326.925 176.632 324.024 168.177C323.311 166.099 322.761 164.017 322.175 161.373L321.498 158.245L321.401 157.819C321.256 157.197 321.139 156.766 321.033 156.465C321.001 156.373 320.971 156.298 320.946 156.243L320.927 156.205C320.921 156.191 320.927 156.201 320.966 156.24C320.506 155.77 320.515 155.017 320.985 154.558Z" fill="#1A1A33"/>
<path fill-rule="evenodd" clip-rule="evenodd" d="M161.552 162.625C155.049 165.48 145.692 171.071 138.158 182.609C148.784 178.247 185.302 210.919 211.193 203.504C199.179 202.235 173.367 183.283 161.552 162.625Z" fill="#1A1A33"/>
<path fill-rule="evenodd" clip-rule="evenodd" d="M182.134 109.412C182.728 109.13 183.437 109.382 183.719 109.975C184.001 110.569 183.749 111.278 183.156 111.56C168.563 118.498 160.188 127.009 157.412 136.705C154.981 145.193 156.881 154.539 162.5 164.167C162.922 164.891 162.483 165.813 161.656 165.942C158.338 166.459 153.505 169.298 146.999 175.3L146.478 175.785C137.924 183.79 127.345 196.455 114.546 214.54C93.4991 244.244 84.4411 271.867 89.5852 292.04C95.1325 313.795 116.859 326.242 154.633 326.894C155.29 326.905 155.813 327.447 155.802 328.104C155.791 328.761 155.249 329.284 154.592 329.273C115.855 328.604 93.1344 315.587 87.28 292.628C81.9282 271.64 91.1945 243.382 112.604 213.166L113.391 212.058C126.056 194.255 136.563 181.749 145.122 173.796L145.386 173.552C151.205 168.182 155.858 165.164 159.498 164.019L159.655 163.97L159.586 163.846C154.389 154.326 152.663 144.974 155.047 136.326L155.125 136.05C158.109 125.626 166.972 116.62 182.134 109.412Z" fill="#1A1A33"/>
<path fill-rule="evenodd" clip-rule="evenodd" d="M351.97 67.7083C352.542 67.2242 353.406 67.3848 353.771 68.025L353.813 68.1039L354.048 68.5723C354.236 68.9432 354.464 69.3879 354.734 69.9083L355.252 70.9024C356.067 72.4548 357.053 74.2996 358.22 76.4441C358.399 76.7674 358.571 76.8609 359.327 77.0057L359.424 77.0241C361.002 77.3171 361.719 77.5474 362.773 78.311C364.166 79.3199 365.412 81.0022 366.589 83.5864L366.619 83.6599L366.645 83.7353L391.505 166.008L391.523 166.076L391.75 167.027C394.578 179.002 396.047 188.019 396.227 196.291L396.234 196.617C396.422 207.187 394.358 215.855 389.547 222.83C378.485 238.867 353.159 245.379 309.508 241.408L308.912 241.353L308.873 241.377C308.72 241.462 308.547 241.515 308.362 241.526L308.292 241.528C307.658 241.528 307.14 241.033 307.104 240.409L307.102 240.339V240.101C307.102 239.399 307.706 238.85 308.404 238.917C352.102 243.069 377.028 236.79 387.588 221.479C392.085 214.96 394.035 206.771 393.855 196.659C393.712 188.609 392.3 179.784 389.543 168.034L389.218 166.662L364.392 84.5032L364.331 84.3714C363.375 82.3196 362.429 81.0375 361.47 80.3065L361.377 80.2374C360.743 79.7779 360.312 79.6198 359.265 79.4153L358.99 79.363C357.517 79.0895 356.763 78.721 356.135 77.5903L355.213 75.8885C354.331 74.2544 353.571 72.8228 352.925 71.5867L352.446 70.6632L352.334 70.447L352.261 70.501C348.748 73.0495 344.272 74.6894 339.056 75.5597L338.735 75.612C332.977 76.5326 326.857 76.4722 321.069 75.8199C320.552 75.7616 320.063 75.7011 319.604 75.6394L318.947 75.5472L318.913 76.1829C318.882 76.7822 318.852 77.4626 318.822 78.2285L318.761 79.9509L318.709 81.7055C318.699 82.0733 318.689 82.4513 318.68 82.8396C318.614 85.5142 317.744 87.0096 315.573 89.094L314.981 89.6513C312.561 91.9206 311.788 93.405 312.077 96.7152L312.088 96.8402L322.982 155.191C323.133 156.003 322.434 156.71 321.631 156.585L321.564 156.572L291.272 150.11C290.801 150.009 290.437 149.635 290.35 149.161C289.204 142.919 287.371 136.647 284.774 130.846C281.544 123.63 277.314 117.55 271.99 112.974C271.492 112.546 271.435 111.795 271.864 111.297C272.292 110.798 273.043 110.742 273.541 111.17C279.153 115.994 283.581 122.358 286.946 129.874C289.468 135.51 291.287 141.556 292.475 147.599L292.542 147.948L320.315 153.873L309.735 97.1975L309.725 97.1192C309.498 94.7645 309.808 92.8795 310.616 91.282C311.212 90.1034 311.902 89.2894 313.201 88.0597L313.668 87.6217C315.579 85.8316 316.224 84.8277 316.297 82.9135L316.341 81.2738C316.351 80.9104 316.362 80.5572 316.372 80.214L316.425 78.6567C316.473 77.3438 316.523 76.256 316.574 75.3749L316.623 74.5895L316.663 74.0573C316.725 73.3836 317.334 72.9025 317.996 72.9868L318.512 73.0738C318.637 73.0942 318.774 73.1157 318.921 73.1383C319.628 73.2463 320.437 73.3546 321.335 73.4558C326.927 74.0862 332.845 74.1445 338.36 73.2628C343.963 72.367 348.603 70.5599 351.97 67.7083Z" fill="#1A1A33"/>
<path fill-rule="evenodd" clip-rule="evenodd" d="M312.203 292.756C312.836 292.746 313.361 293.233 313.407 293.857L313.41 293.927L313.926 327.827C313.936 328.484 313.411 329.025 312.754 329.035C312.121 329.045 311.596 328.557 311.55 327.934L311.547 327.864L311.031 293.963C311.021 293.306 311.546 292.766 312.203 292.756Z" fill="#1A1A33"/>
<path fill-rule="evenodd" clip-rule="evenodd" d="M305.639 151.959C300.841 149.977 294.497 149.224 290.294 148.55C291.206 153.466 291.444 157.748 291.325 160.643C290.413 181.538 282.246 189.666 280.303 197.358C305.441 188.12 307.383 163.616 305.639 151.959Z" fill="#1A1A33"/>
<path fill-rule="evenodd" clip-rule="evenodd" d="M268.012 274.041C267.497 278.442 266.466 280.306 256.157 285.619C253.501 286.967 247.95 289.901 240.535 293.628C242.081 312.7 242.954 326.735 242.954 326.735L273.92 327.172C273.92 327.172 273.048 295.293 272.413 262.9C270.59 266.428 268.33 271.385 268.012 274.041Z" fill="#00D37F"/>
<path fill-rule="evenodd" clip-rule="evenodd" d="M271.618 200.332C272.014 183.243 265.472 166.472 259.128 155.29C258.097 170.873 254.806 188.953 251.238 194.861C234.585 183.323 222.095 176.701 212.104 171.428C205.799 161.277 200.486 152.198 198.187 145.616C198.226 144.625 198.266 143.594 198.266 142.602C197.869 142.642 197.513 142.682 197.195 142.721C199.971 151.88 205.958 164.886 218.368 182.331C220.747 185.107 223.087 188.239 225.307 191.689C228.281 196.328 230.977 209.452 233.316 225.787C247.114 223.884 257.78 223.488 259.723 226.422L271.697 228.721C271.261 205.883 271.419 209.69 271.618 200.332Z" fill="#00D37F"/>
<path fill-rule="evenodd" clip-rule="evenodd" d="M287.325 257.016C287.969 256.884 288.597 257.299 288.729 257.942C288.856 258.563 288.475 259.17 287.87 259.33L287.802 259.346L269.405 263.113C268.761 263.245 268.133 262.83 268.001 262.186C267.874 261.566 268.255 260.959 268.86 260.798L268.928 260.782L287.325 257.016Z" fill="#1A1A33"/>
<path fill-rule="evenodd" clip-rule="evenodd" d="M273.371 227.082C284.822 223.287 294.586 225.635 302.512 232.585C308.113 237.496 312.364 244.431 314.458 250.372L314.59 250.754C316.539 256.476 319.047 267.573 319.349 271.561L319.606 274.996C319.674 275.923 319.734 276.767 319.792 277.623L319.864 278.711C320.028 281.223 320.152 283.551 320.234 285.771L320.259 286.484C320.4 290.724 320.365 294.233 320.114 296.89L320.078 297.251C319.695 300.934 318.923 302.94 317.056 303.062C315.052 303.186 313.531 300.719 311.718 295.965C310.521 292.823 309.319 288.851 308.298 284.927C308.133 284.291 308.515 283.641 309.15 283.476C309.786 283.311 310.436 283.692 310.601 284.328C311.601 288.175 312.78 292.071 313.941 295.117L314.118 295.574C314.763 297.22 315.38 298.537 315.949 299.459C316.234 299.921 316.498 300.268 316.724 300.488L316.802 300.56L316.861 300.609L316.89 300.564C316.956 300.454 317.026 300.307 317.096 300.122L317.131 300.027C317.398 299.279 317.606 298.141 317.745 296.665C317.999 293.987 318.022 290.323 317.857 285.859L317.819 284.911C317.739 283 317.629 280.999 317.49 278.863L317.418 277.784C317.375 277.145 317.331 276.514 317.283 275.848L316.966 271.602C316.626 267.628 314.092 256.507 312.213 251.162C310.247 245.579 306.205 238.988 300.944 234.374C293.555 227.895 284.555 225.777 273.792 229.451L273.741 229.467L273.69 229.48L255.649 233.882C255.011 234.037 254.368 233.646 254.212 233.008C254.062 232.392 254.42 231.772 255.018 231.589L255.086 231.57L273.077 227.181L273.371 227.082Z" fill="#1A1A33"/>
<path fill-rule="evenodd" clip-rule="evenodd" d="M287.37 253.386C287.434 252.733 288.016 252.255 288.67 252.319C289.324 252.383 289.802 252.965 289.738 253.619L289.714 253.844C289.68 254.151 289.636 254.489 289.579 254.883L289.437 255.813C289.347 256.381 289.179 257.426 289.132 257.725L289.044 258.301C288.689 260.655 288.511 262.424 288.497 264.19C288.475 266.997 288.914 269.309 289.914 271.129C290.23 271.705 290.02 272.428 289.444 272.744C288.868 273.06 288.145 272.85 287.829 272.274C286.605 270.047 286.093 267.351 286.118 264.171C286.134 262.197 286.335 260.259 286.735 257.66L287.133 255.154L287.223 254.552C287.29 254.089 287.338 253.716 287.37 253.386Z" fill="#1A1A33"/>
<path fill-rule="evenodd" clip-rule="evenodd" d="M312.879 270.163C313.509 270.237 313.965 270.789 313.928 271.414L313.919 271.511L313.896 271.698C313.874 271.867 313.848 272.062 313.817 272.281L313.747 272.763C313.673 273.257 313.587 273.787 313.49 274.348C313.118 276.487 312.65 278.627 312.075 280.632L311.948 281.069C310.387 286.326 308.377 289.692 305.512 290.347C302.345 291.071 300.14 290.17 298.962 288.202C298.659 287.695 298.453 287.161 298.322 286.627C298.242 286.301 298.204 286.036 298.192 285.858C298.148 285.202 298.643 284.635 299.299 284.591C299.931 284.548 300.481 285.007 300.559 285.627L300.566 285.697C300.569 285.746 300.588 285.878 300.633 286.062C300.71 286.378 300.832 286.694 301.004 286.981C301.644 288.051 302.805 288.525 304.982 288.028C306.729 287.628 308.447 284.653 309.788 279.977C310.337 278.062 310.788 276.002 311.146 273.941L311.236 273.41C311.308 272.975 311.372 272.563 311.428 272.177L311.494 271.709L311.56 271.206C311.636 270.554 312.227 270.087 312.879 270.163Z" fill="#1A1A33"/>
<path fill-rule="evenodd" clip-rule="evenodd" d="M306.316 269.584C306.959 269.716 307.375 270.344 307.244 270.987L307.204 271.176C307.172 271.323 307.134 271.493 307.089 271.684C306.964 272.227 306.814 272.831 306.64 273.48C306.142 275.338 305.548 277.197 304.857 278.94L304.688 279.36C302.79 283.996 300.542 286.942 297.656 287.389C294.532 287.873 292.415 286.891 291.34 284.938C291.038 284.388 290.847 283.81 290.741 283.233C290.677 282.882 290.654 282.597 290.654 282.407C290.654 281.75 291.187 281.217 291.844 281.217C292.477 281.217 292.995 281.713 293.031 282.337L293.035 282.456C293.04 282.528 293.053 282.649 293.081 282.804C293.144 283.145 293.256 283.484 293.425 283.791C294.007 284.849 295.135 285.372 297.292 285.038C299.116 284.755 301.011 282.188 302.646 278.064C303.299 276.415 303.866 274.64 304.342 272.864L304.463 272.407C304.56 272.032 304.647 271.677 304.726 271.345L304.819 270.942L304.912 270.512C305.044 269.869 305.672 269.453 306.316 269.584Z" fill="#1A1A33"/>
<path fill-rule="evenodd" clip-rule="evenodd" d="M282.074 269.059C284.562 266.96 287.794 267.84 290.987 272.933C291.336 273.49 291.168 274.224 290.611 274.573C290.055 274.922 289.321 274.753 288.972 274.197C287.54 271.914 286.271 270.766 285.227 270.481C284.606 270.312 284.088 270.472 283.609 270.877C283.519 270.953 283.441 271.028 283.376 271.097L283.343 271.132L283.346 271.177C283.351 271.25 283.36 271.333 283.373 271.426L283.387 271.522C283.464 272.001 283.627 272.57 283.902 273.23C284.684 275.107 286.196 277.342 288.626 279.927C289.88 281.261 290.774 281.344 291.793 280.514C292.833 279.668 293.875 277.937 294.823 275.61C295.355 274.302 295.825 272.894 296.225 271.484L296.34 271.07C296.414 270.8 296.482 270.543 296.544 270.3L296.638 269.92L296.709 269.62C296.851 268.978 297.487 268.574 298.128 268.716C298.746 268.854 299.144 269.45 299.044 270.067L299.026 270.156L298.95 270.479C298.934 270.547 298.916 270.619 298.897 270.696L298.8 271.08C298.714 271.41 298.619 271.762 298.513 272.134C298.091 273.622 297.595 275.11 297.026 276.507C295.94 279.175 294.722 281.198 293.295 282.359C291.287 283.994 288.984 283.782 286.892 281.556C284.276 278.774 282.605 276.303 281.706 274.145C281.108 272.709 280.913 271.576 280.968 270.765L280.975 270.673C280.982 270.6 280.99 270.54 280.999 270.493C281.027 270.345 281.082 270.205 281.161 270.078C281.338 269.796 281.639 269.426 282.074 269.059Z" fill="#1A1A33"/>
<path fill-rule="evenodd" clip-rule="evenodd" d="M268.251 271.265C254.215 259.886 249.497 231.259 255.404 224.994C255.642 223.012 260.202 226.342 262.938 226.659C269.559 227.413 272.414 227.611 272.414 227.611C269.718 235.858 272.731 245.85 275.784 252.947C277.569 257.19 279.432 260.52 280.344 262.067C279.829 262.344 277.687 263.375 272.612 265.595C269.718 266.904 269.123 269.085 268.251 271.265Z" fill="#1A1A33"/>
<path fill-rule="evenodd" clip-rule="evenodd" d="M156.976 227.117C161.228 225.7 166.875 224.866 171.837 225.316C178.716 225.94 183.894 228.89 186.395 234.63C186.658 235.232 186.382 235.933 185.78 236.195C185.178 236.458 184.477 236.182 184.214 235.58C182.106 230.741 177.712 228.238 171.622 227.686C167.015 227.268 161.689 228.054 157.728 229.374C157.105 229.582 156.431 229.245 156.223 228.622C156.016 227.998 156.353 227.325 156.976 227.117Z" fill="#1A1A33"/>
<path fill-rule="evenodd" clip-rule="evenodd" d="M208.465 228.852C239.171 222.784 257.614 221.061 260.718 225.767C260.742 225.803 260.764 225.84 260.784 225.878L260.812 225.937L275.403 258.608C275.544 258.925 275.54 259.286 275.394 259.597L275.349 259.684L275.089 260.162L274.899 260.517C274.735 260.824 274.559 261.156 274.374 261.511C273.633 262.928 272.893 264.408 272.203 265.875C271.854 266.616 271.526 267.336 271.224 268.03C270.077 270.658 269.349 272.773 269.168 274.109L269.154 274.219C268.542 279.443 266.619 281.541 257.244 286.415L256.309 286.901C254.208 288.01 245.165 292.875 241.316 294.9C232.299 299.643 223.646 303.977 214.82 308.084C204.656 312.813 194.912 316.927 185.667 320.312C173.669 324.705 162.81 327.757 153.293 329.259C152.644 329.361 152.035 328.918 151.933 328.269C151.83 327.62 152.273 327.011 152.922 326.909C162.268 325.434 172.985 322.422 184.849 318.078C194.026 314.718 203.71 310.629 213.817 305.927C222.221 302.016 230.474 297.896 239.038 293.409L241.157 292.293C245.707 289.885 254.563 285.119 255.573 284.601L256.384 284.181C264.73 279.833 266.235 278.247 266.759 274.202L266.791 273.944C266.98 272.314 267.775 269.985 269.043 267.078C269.355 266.363 269.692 265.623 270.05 264.861C270.756 263.363 271.511 261.854 272.265 260.409L272.594 259.784L272.99 259.041L258.686 227.012L258.664 226.984C257.48 225.513 251.81 225.057 242.758 225.864L242.197 225.915C233.612 226.717 222.299 228.543 208.926 231.185C204.344 232.091 199.579 233.081 194.671 234.143C186.395 235.933 178.088 237.844 170.11 239.762L167.644 240.358C165.234 240.943 163.009 241.491 161 241.993L159.651 242.331L157.646 242.839C157.01 243.002 156.362 242.619 156.198 241.983C156.04 241.369 156.391 240.745 156.987 240.554L157.078 240.529L160.024 239.785L162.508 239.167C164.088 238.776 165.779 238.362 167.569 237.929L168.059 237.81C176.508 235.767 185.354 233.724 194.168 231.817C199.089 230.753 203.869 229.76 208.465 228.852Z" fill="#1A1A33"/>
<path fill-rule="evenodd" clip-rule="evenodd" d="M198.91 122.342L198.98 122.342C199.637 122.363 200.152 122.913 200.131 123.569L199.453 144.546L199.424 145.43L199.474 145.568C201.472 151.12 205.514 158.462 212.709 170.08L212.986 170.526L214.88 171.53C228.521 178.776 237.616 184.091 249.589 192.257L250.86 193.127L250.951 192.935C253.939 186.526 256.861 170.977 257.919 156.149L257.983 155.212C258.027 154.556 258.593 154.06 259.249 154.104C259.904 154.147 260.4 154.713 260.357 155.369C259.258 171.979 255.837 189.616 252.298 195.476C251.943 196.063 251.167 196.229 250.603 195.839L249.663 195.191C236.425 186.088 226.946 180.584 211.59 172.48C211.404 172.381 211.247 172.235 211.135 172.055L210.003 170.226C202.994 158.857 199.073 151.64 197.106 146.008C197.057 145.87 197.035 145.724 197.04 145.578L197.753 123.493C197.774 122.86 198.285 122.358 198.91 122.342Z" fill="#1A1A33"/>
<path fill-rule="evenodd" clip-rule="evenodd" d="M193.757 93.2834C194.411 93.2224 194.991 93.7031 195.052 94.3572C195.113 95.0113 194.632 95.5911 193.978 95.6521C191.418 95.891 188.759 96.6183 186.642 98.0623C183.614 100.128 182.292 103.316 183.258 108.114C184.021 111.96 185.983 114.045 188.968 114.822C191.359 115.444 194.289 115.196 197.396 114.336C198.029 114.16 198.684 114.532 198.86 115.165C199.035 115.798 198.664 116.453 198.031 116.628C194.557 117.59 191.239 117.871 188.369 117.124C184.5 116.117 181.865 113.317 180.925 108.58C179.77 102.842 181.488 98.6986 185.302 96.0971C187.817 94.3809 190.832 93.5564 193.757 93.2834Z" fill="#1A1A33"/>
<path fill-rule="evenodd" clip-rule="evenodd" d="M272.378 71.1638C273.029 71.0789 273.626 71.5383 273.711 72.1897C275.592 86.6383 275.209 103.307 273.195 118.886C273.111 119.537 272.515 119.997 271.863 119.913C271.212 119.829 270.752 119.232 270.836 118.581C272.825 103.191 273.204 86.7208 271.352 72.4969C271.267 71.8455 271.726 71.2486 272.378 71.1638Z" fill="#1A1A33"/>
<path fill-rule="evenodd" clip-rule="evenodd" d="M270.837 118.539C270.922 117.888 271.52 117.429 272.171 117.515C272.822 117.6 273.281 118.198 273.196 118.849L273.029 120.09C272.376 124.872 271.645 129.139 270.918 132.468C270.778 133.11 270.144 133.517 269.502 133.377C268.861 133.236 268.454 132.602 268.594 131.961L268.716 131.392C269.45 127.925 270.187 123.487 270.837 118.539Z" fill="#1A1A33"/>
<path fill-rule="evenodd" clip-rule="evenodd" d="M202.547 96.1363L193.824 96.7707C193.128 96.8214 192.63 97.4563 192.735 98.1369L192.772 98.3201L193.748 102.847L194.095 104.444C194.978 108.498 195.874 112.553 196.742 116.405L197.259 118.689L197.893 121.459C199.437 128.16 200.661 133.14 201.467 135.885L201.574 136.246C204.376 145.569 206.809 148.964 216.57 155.979C222.155 159.993 230.619 162.695 238.787 162.947C248.126 163.236 256.215 160.399 261.352 154.313C264.6 150.452 267.159 145.347 269.122 139.3C270.705 134.427 271.816 129.218 272.54 124.01C272.793 122.189 272.98 120.497 273.11 118.977L273.143 118.588C273.158 118.399 273.172 118.218 273.185 118.047L273.225 117.454L273.248 117.044C273.273 116.498 272.923 116.005 272.399 115.849C270.055 115.151 266.193 114.661 261.349 114.326C259.891 114.226 258.426 114.145 257.002 114.083L256.294 114.053C255.787 114.033 255.314 114.016 254.88 114.002L253.927 113.976L253.883 113.976C243.687 114.129 234.052 115.25 225.242 117.023C222.06 117.664 219.198 118.349 216.691 119.037L216.091 119.203C215.606 119.34 215.155 119.47 214.739 119.595L214.322 119.72L214.296 119.63C212.169 112.346 206.036 99.0835 203.481 96.4882C203.237 96.2397 202.895 96.111 202.547 96.1363ZM202.125 98.5518L202.167 98.6048C204.79 101.982 210.825 115.353 212.339 121.515C212.5 122.171 213.171 122.556 213.812 122.378L214.4 122.187L214.658 122.105C215.312 121.901 216.085 121.673 216.97 121.427L217.671 121.234C220.041 120.593 222.73 119.955 225.708 119.356L226.301 119.238C234.615 117.599 243.669 116.551 253.231 116.366L253.886 116.355L254.591 116.374C255.074 116.388 255.612 116.407 256.195 116.431C257.818 116.495 259.505 116.584 261.181 116.7L262.051 116.762C265.595 117.029 268.547 117.387 270.586 117.84L270.807 117.89L270.768 118.397C270.758 118.518 270.748 118.644 270.737 118.773L270.674 119.468C270.552 120.764 270.389 122.178 270.18 123.683C269.474 128.762 268.391 133.839 266.856 138.566C264.979 144.344 262.553 149.186 259.529 152.78C254.916 158.246 247.527 160.837 238.857 160.569C231.148 160.331 223.143 157.775 217.955 154.047L217.403 153.649C208.715 147.348 206.534 144.329 204.007 136.082L203.779 135.328C202.946 132.513 201.614 127.068 199.924 119.691L199.457 117.642L199.059 115.882C198.392 112.923 197.709 109.845 197.028 106.738L195.985 101.957L195.356 99.0443L202.125 98.5518Z" fill="#1A1A33"/>
<path fill-rule="evenodd" clip-rule="evenodd" d="M247.355 135.981C247.355 135.981 253.818 134.673 256.475 137.29L247.355 135.981Z" fill="white"/>
<path fill-rule="evenodd" clip-rule="evenodd" d="M248.26 134.637C249.698 134.456 251.187 134.4 252.601 134.548C254.574 134.755 256.192 135.339 257.312 136.442C257.78 136.903 257.786 137.656 257.325 138.124C256.863 138.592 256.11 138.598 255.642 138.137C254.975 137.48 253.84 137.07 252.353 136.914C251.146 136.788 249.83 136.837 248.558 136.998C248.345 137.025 248.148 137.053 247.969 137.082L247.647 137.137C247.624 137.141 247.606 137.144 247.594 137.147C246.95 137.277 246.322 136.861 246.192 136.217C246.061 135.573 246.478 134.946 247.122 134.815L247.379 134.767C247.604 134.728 247.902 134.683 248.26 134.637Z" fill="#1A1A33"/>
<path fill-rule="evenodd" clip-rule="evenodd" d="M255.468 104.705C256.097 104.634 256.668 105.068 256.774 105.684L256.784 105.753L259.163 126.767C259.254 127.573 258.533 128.224 257.751 128.068L257.683 128.053L250.309 126.15C249.672 125.986 249.29 125.337 249.454 124.701C249.612 124.088 250.221 123.71 250.835 123.831L250.903 123.846L256.604 125.318L254.42 106.021C254.348 105.391 254.782 104.821 255.399 104.715L255.468 104.705Z" fill="#1A1A33"/>
<path fill-rule="evenodd" clip-rule="evenodd" d="M263.332 111.596C264.515 111.596 265.474 110.105 265.474 108.266C265.474 106.426 264.515 104.935 263.332 104.935C262.15 104.935 261.191 106.426 261.191 108.266C261.191 110.105 262.15 111.596 263.332 111.596Z" fill="#1A1A33"/>
<path fill-rule="evenodd" clip-rule="evenodd" d="M242.633 111.2C243.816 111.2 244.774 109.709 244.774 107.87C244.774 106.03 243.816 104.539 242.633 104.539C241.451 104.539 240.492 106.03 240.492 107.87C240.492 109.709 241.451 111.2 242.633 111.2Z" fill="#1A1A33"/>
<path fill-rule="evenodd" clip-rule="evenodd" d="M234.578 87.6399C236.84 85.9829 239.603 85.1602 242.81 85.6391C243.46 85.7362 243.908 86.3416 243.811 86.9913C243.714 87.641 243.108 88.0891 242.459 87.992C239.916 87.6123 237.768 88.2517 235.983 89.5591C235.48 89.9275 235.047 90.322 234.686 90.7138L234.57 90.8423C234.464 90.9631 234.385 91.0603 234.333 91.1273L234.292 91.184C233.916 91.7226 233.174 91.8544 232.636 91.4783C232.097 91.1022 231.965 90.3606 232.341 89.822C232.454 89.6611 232.652 89.4114 232.936 89.1025C233.397 88.602 233.944 88.1042 234.578 87.6399Z" fill="#1A1A33"/>
<path fill-rule="evenodd" clip-rule="evenodd" d="M262.793 85.2068C264.015 85.0155 265.314 85.0093 266.565 85.3187C268.678 85.8408 270.266 87.1933 270.972 89.4779C271.166 90.1056 270.814 90.7716 270.186 90.9655C269.559 91.1594 268.893 90.8078 268.699 90.1801C268.254 88.7408 267.337 87.96 265.995 87.6282C265.095 87.4058 264.097 87.4107 263.161 87.5572L263.013 87.5816C262.899 87.6015 262.808 87.6199 262.744 87.6344L262.681 87.6497C262.045 87.815 261.395 87.4336 261.23 86.7978C261.065 86.162 261.446 85.5125 262.082 85.3472C262.23 85.3087 262.473 85.2569 262.793 85.2068Z" fill="#1A1A33"/>
<path fill-rule="evenodd" clip-rule="evenodd" d="M286.216 68.9335C285.701 67.3872 286.296 65.5237 287.366 63.6601L287.089 63.3429L285.741 67.1097C285.741 67.1097 281.538 68.9335 280.15 63.5412C279.714 61.8759 280.705 59.8934 282.251 57.9109L282.212 57.8713C276.383 59.2194 264.924 61.4398 263.894 59.1401C262.427 55.8888 283.044 47.2452 289.349 44.5094C292.56 43.082 303.702 40.0289 309.729 39.1567C312.187 38.7998 316.628 38.4826 321.703 38.9981C322.139 35.4296 321.544 31.8215 319.641 28.3323C317.698 24.7242 313.614 19.4111 310.006 17.4683C274.202 -1.5239 256.757 30.5527 256.757 30.5527C256.757 30.5527 251.721 16.7546 235.385 16.2788C228.724 16.0805 222.222 18.6974 217.503 23.4157C204.141 36.8173 213.063 51.9635 213.063 51.9635C213.063 51.9635 206.838 48.7915 198.432 52.8358C188.401 57.673 183.365 69.0525 185.982 79.8769C188.757 91.3753 193.872 102.319 193.872 102.319C226.464 107.354 234.791 75.3568 229.993 71.2332C237.209 76.5859 250.214 80.1544 272.22 77.934C277.255 77.4186 283.441 75.4361 289.745 72.4227C288.476 72.3038 287.089 71.5108 286.216 68.9335Z" fill="#1A1A33"/>
<path fill-rule="evenodd" clip-rule="evenodd" d="M316.455 64.7261C317.07 64.573 317.692 64.9284 317.878 65.5255L317.897 65.5929L322.79 85.242L351.019 76.8727C351.626 76.6926 352.263 77.0202 352.475 77.6086L352.497 77.675C352.677 78.2823 352.35 78.9195 351.761 79.1317L351.695 79.1535L322.275 87.8765C321.648 88.0624 320.993 87.707 320.801 87.0905L320.782 87.0235L315.588 66.1678C315.43 65.5303 315.818 64.8849 316.455 64.7261Z" fill="#1A1A33"/>
<path fill-rule="evenodd" clip-rule="evenodd" d="M309.553 37.9798C315.891 37.0467 324.391 37.4204 331.68 39.8417C342.171 43.3265 349.179 50.5582 351.09 62.1736L351.135 62.4607L355.322 78.1022C355.483 78.7019 355.155 79.3197 354.578 79.5281L354.511 79.5503L326.518 87.8371C325.888 88.0236 325.226 87.6641 325.04 87.0342C324.86 86.4267 325.188 85.7897 325.776 85.5777L325.843 85.556L352.724 77.5977L348.821 63.016C348.816 62.9953 348.811 62.9744 348.806 62.9534L348.795 62.89C347.115 52.0122 340.729 45.3542 330.93 42.0994C324.146 39.8458 316.163 39.4627 310.193 40.2914L309.896 40.3338C304.368 41.134 293.405 44.0501 289.931 45.5515L285.966 47.2675C285.544 47.4515 285.135 47.6302 284.722 47.8115L283.76 48.2354C281.701 49.1465 279.8 50.011 277.99 50.866C276.357 51.6368 274.847 52.3776 273.467 53.0875L272.948 53.3558C270.307 54.7328 268.233 55.9596 266.826 57.0014C266.049 57.5768 265.498 58.0803 265.198 58.4792C265.17 58.5174 265.145 58.5532 265.122 58.5865L265.078 58.6575L265.148 58.6855C265.44 58.7937 265.883 58.874 266.454 58.9151C267.603 58.9976 269.185 58.9179 271.112 58.6921C274.275 58.3215 278.189 57.5802 281.941 56.7123C282.581 56.5643 283.22 56.9631 283.368 57.6032C283.516 58.2432 283.117 58.8821 282.477 59.0301C278.788 59.8833 274.95 60.6162 271.755 61.0109L271.389 61.0549C266.442 61.6346 263.615 61.4314 262.807 59.6292C261.728 57.2385 265.007 54.7798 272.161 51.0844L272.378 50.972C273.784 50.2489 275.318 49.4965 276.974 48.7148L277.825 48.3153C279.54 47.5146 281.34 46.702 283.278 45.8477L285.272 44.975L289.105 43.3174C292.904 41.7139 303.889 38.7994 309.553 37.9798Z" fill="#1A1A33"/>
<path fill-rule="evenodd" clip-rule="evenodd" d="M324.021 60.8805C324.57 60.5207 325.307 60.6745 325.667 61.2241C326.027 61.7737 325.873 62.5109 325.324 62.8708C323.368 64.1516 319.203 66.2132 315.193 67.8219C310.068 69.8777 305.635 71.0716 302.597 70.9947C301.94 70.9781 301.421 70.4322 301.438 69.7755C301.455 69.1188 302 68.5999 302.657 68.6165C305.282 68.6829 309.464 67.5569 314.307 65.6139L314.966 65.3459C318.631 63.8361 322.315 61.9974 324.021 60.8805Z" fill="#1A1A33"/>
<path fill-rule="evenodd" clip-rule="evenodd" d="M293.179 48.3594C293.549 48.9023 293.409 49.6423 292.866 50.0122L292.527 50.2489L292.365 50.364C291.958 50.6542 291.504 50.9871 291.015 51.3572C289.616 52.4144 288.218 53.555 286.918 54.7331C285.297 56.2005 283.947 57.6201 282.96 58.9392C281.596 60.7637 281.032 62.2644 281.294 63.2821C281.707 64.8734 282.365 65.7122 283.181 66.0569C283.744 66.2945 284.384 66.2939 284.991 66.1392C285.051 66.1241 285.105 66.1085 285.154 66.0931L285.268 66.0542C285.873 65.7975 286.571 66.0796 286.828 66.6843C287.085 67.289 286.803 67.9873 286.198 68.244C286.061 68.3021 285.851 68.3751 285.579 68.4445C284.512 68.7163 283.367 68.7174 282.256 68.2486C280.715 67.5981 279.58 66.1515 278.991 63.8771C278.503 61.983 279.3 59.8612 281.055 57.5143C282.146 56.0562 283.596 54.5315 285.321 52.9697C286.678 51.7401 288.129 50.5564 289.58 49.4596L289.953 49.179C290.198 48.9967 290.433 48.8243 290.656 48.6624L291.154 48.3059L291.526 48.0462C292.069 47.6763 292.809 47.8165 293.179 48.3594Z" fill="#1A1A33"/>
<path fill-rule="evenodd" clip-rule="evenodd" d="M296.607 53.7482C297.006 54.2374 296.952 54.949 296.495 55.3725L296.427 55.4313L296.202 55.6194L296.044 55.754C295.722 56.0295 295.362 56.346 294.975 56.6982C293.867 57.7048 292.76 58.7925 291.729 59.9182C290.393 61.3768 289.291 62.7881 288.502 64.0978C287.375 65.9716 286.977 67.4997 287.335 68.5493C287.818 69.9647 288.461 70.7471 289.204 71.087C289.807 71.3628 290.488 71.3468 291.149 71.1392L291.271 71.0985C291.364 71.066 291.431 71.0376 291.47 71.0195L291.489 71.01C292.072 70.7071 292.79 70.9341 293.093 71.517C293.396 72.1 293.169 72.8181 292.586 73.121C292.428 73.2033 292.182 73.3082 291.862 73.4086C290.69 73.7773 289.43 73.8067 288.214 73.2502C286.837 72.6199 285.765 71.3178 285.083 69.317C284.447 67.4512 285.01 65.2868 286.464 62.871C287.345 61.4082 288.54 59.8779 289.974 58.3117C291.058 57.1275 292.217 55.99 293.375 54.9375L293.715 54.6308C293.937 54.4324 294.149 54.2465 294.349 54.0739L294.584 53.8725L294.933 53.5795C295.442 53.1639 296.191 53.2394 296.607 53.7482Z" fill="#1A1A33"/>
<path fill-rule="evenodd" clip-rule="evenodd" d="M299.404 60.2524C299.906 59.829 300.657 59.8931 301.08 60.3954C301.504 60.8977 301.44 61.6482 300.937 62.0715L300.732 62.2483L300.628 62.3398C300.374 62.5635 300.091 62.8203 299.785 63.1057C298.911 63.9214 298.037 64.8004 297.224 65.7062C296.246 66.797 295.426 67.8505 294.818 68.8284L294.675 69.0636C293.125 71.6531 293.346 73.0039 295.691 73.6553C300.316 74.9398 303.415 74.9977 305.269 74.3791C305.391 74.3383 305.498 74.2972 305.589 74.2572L305.634 74.2368L305.648 74.1999C305.812 73.7467 305.845 73.2938 305.696 72.8985L305.661 72.8147C305.224 71.8505 303.662 71.0788 300.437 70.833C299.782 70.7831 299.292 70.2116 299.341 69.5565C299.391 68.9015 299.963 68.411 300.618 68.4609C304.618 68.7659 306.963 69.9237 307.828 71.8322C308.311 72.8964 308.253 73.9913 307.886 75.0079C307.779 75.3049 307.667 75.5344 307.578 75.6847C307.505 75.8078 307.411 75.9168 307.299 76.0064C307.056 76.2015 306.638 76.4303 306.022 76.6357C303.68 77.4174 300.106 77.3507 295.055 75.9475C290.749 74.7516 290.373 71.4759 292.798 67.573C293.487 66.4628 294.389 65.304 295.454 64.1176C296.317 63.1548 297.24 62.2272 298.162 61.3665L298.477 61.0752C298.579 60.9815 298.678 60.8912 298.775 60.8045L299.22 60.4107C299.301 60.3405 299.363 60.2874 299.404 60.2524Z" fill="#1A1A33"/>
<path fill-rule="evenodd" clip-rule="evenodd" d="M313.889 88.996C319.519 96.4501 357.622 90.8199 363.887 81.185C360.874 77.0614 358.495 79.4008 357.146 76.9821C353.974 71.1536 352.706 68.5764 352.706 68.5764C346.084 74.2067 335.696 75.1979 327.964 75.0393C323.365 74.9997 319.559 74.5239 317.774 74.286C317.735 74.8807 317.576 77.2597 317.417 82.771C317.378 85.9826 315.594 87.41 313.889 88.996Z" fill="#1A1A33"/>
<path fill-rule="evenodd" clip-rule="evenodd" d="M521.932 217.382H367.775C365.752 217.382 364.008 218.77 363.532 220.752L342.082 311.47H286.215C286.215 311.47 283.123 327.449 301.163 327.449H497.984C500.006 327.449 501.751 326.062 502.227 324.079L526.175 222.735C526.809 219.999 524.748 217.382 521.932 217.382Z" fill="#1A1A33"/>
<path fill-rule="evenodd" clip-rule="evenodd" d="M509.201 255.921C499.447 255.921 491.795 247.595 492.588 237.88C493.183 230.704 493.262 226.263 494.015 222.933C495.046 218.333 503.888 212.029 514.236 204.416C519.668 200.451 523.435 196.724 525.537 193.275C527.638 189.825 528.709 185.583 528.709 180.507C528.709 174.243 526.726 169.287 522.721 165.678C518.757 162.07 513.919 160.286 508.249 160.286C496.989 160.286 489.455 166.234 485.57 178.168C482.993 186.098 475.023 190.935 466.776 189.785C455.793 188.239 449.251 176.82 453.335 166.511C457.022 157.193 462.295 149.581 469.155 143.633C480.534 133.8 494.491 128.884 510.906 128.884C527.678 128.884 541.753 133.721 553.093 143.356C564.433 153.03 570.142 165.282 570.142 180.111C570.142 198.508 560.706 213.892 541.793 226.263C533.586 231.695 528.59 235.938 526.845 238.991C526.25 240.022 525.775 241.33 525.378 242.956C523.633 250.529 516.972 255.921 509.201 255.921ZM511.463 305.602H509.956C499.37 305.602 490.766 296.998 490.766 286.412C490.766 275.825 499.37 267.221 509.956 267.221H511.463C522.049 267.221 530.653 275.825 530.653 286.412C530.653 297.038 522.089 305.602 511.463 305.602Z" fill="#00D37F"/>
<path fill-rule="evenodd" clip-rule="evenodd" d="M117.621 93.5559C115.44 94.5075 112.942 93.3973 112.189 91.1373C111.634 89.472 111.238 88.4808 111.079 87.6878C110.881 86.5776 112.229 84.3176 113.775 81.6214C114.608 80.2336 115.084 79.0442 115.202 78.0529C115.361 77.1013 115.163 76.0308 114.687 74.9206C114.092 73.5329 113.18 72.6209 111.951 72.2244C110.722 71.7883 109.493 71.8676 108.224 72.4227C105.726 73.4932 104.616 75.555 104.894 78.5684C105.092 80.5905 103.783 82.4144 101.841 82.9695C99.2633 83.6832 96.6861 81.78 96.6068 79.0838C96.5275 76.6652 96.9637 74.4448 97.9152 72.4623C99.5012 69.1714 102.118 66.7528 105.766 65.1668C109.493 63.5411 113.061 63.2636 116.551 64.3341C120 65.4047 122.458 67.5458 123.886 70.8367C125.67 74.9206 125.036 79.2424 122.022 83.8021C120.714 85.7846 120.04 87.212 119.921 88.0446C119.881 88.3222 119.921 88.679 119.96 89.0755C120.317 90.9787 119.366 92.8026 117.621 93.5559ZM122.891 104.38L122.534 104.539C120.195 105.57 117.459 104.459 116.428 102.12C115.397 99.7808 116.508 97.045 118.847 96.0141L119.204 95.8555C121.543 94.8246 124.279 95.9348 125.31 98.2741C126.341 100.613 125.27 103.349 122.891 104.38Z" fill="#1A1A33"/>
<path fill-rule="evenodd" clip-rule="evenodd" d="M138.713 42.8041C135.502 42.6455 133.123 39.7511 133.559 36.5791C133.876 34.2398 133.995 32.7728 134.312 31.6626C134.748 30.1559 137.762 28.2527 141.33 25.9134C143.194 24.6842 144.502 23.5344 145.255 22.4639C146.009 21.3537 146.445 20.0056 146.524 18.3006C146.643 16.2389 146.088 14.5736 144.819 13.3048C143.59 12.036 142.004 11.362 140.141 11.243C136.414 11.0448 133.836 12.8686 132.33 16.7147C131.338 19.2919 128.603 20.7193 125.906 20.2038C122.338 19.4901 120.356 15.6045 121.902 12.2739C123.29 9.26052 125.153 6.84189 127.532 5.01801C131.457 2.00464 136.136 0.616897 141.568 0.934095C147.079 1.25129 151.639 3.07518 155.208 6.48505C158.776 9.89492 160.441 14.0185 160.164 18.8954C159.847 24.9618 156.437 29.8387 149.974 33.6054C147.159 35.2311 145.454 36.5395 144.819 37.5307C144.621 37.8479 144.423 38.2841 144.264 38.7995C143.59 41.2975 141.291 42.9231 138.713 42.8041ZM138.553 59.219L138.038 59.1793C134.548 58.9811 131.852 56.0073 132.05 52.5182C132.249 49.029 135.222 46.3328 138.712 46.5311L139.227 46.5707C142.716 46.769 145.412 49.7427 145.214 53.2319C145.056 56.721 142.042 59.4172 138.553 59.219Z" fill="#1A1A33"/>
<path fill-rule="evenodd" clip-rule="evenodd" d="M601.588 326.854C602.245 326.854 602.777 327.387 602.777 328.044C602.777 328.677 602.282 329.195 601.658 329.231L601.588 329.233H1.49027C0.833334 329.233 0.300781 328.701 0.300781 328.044C0.300781 327.411 0.795974 326.893 1.42038 326.857L1.49027 326.854H601.588Z" fill="#1A1A33"/>
</svg>
